<svg width="59" height="48" viewBox="0 0 59 48" fill="none" xmlns="http://www.w3.org/2000/svg">
<path fill-rule="evenodd" clip-rule="evenodd" d="M2.11437 11.4096C1.48216 11.7077 0.94763 12.1802 0.573224 12.7716C0.198818 13.3631 0 14.0492 0 14.7497C0 15.4503 0.198818 16.1364 0.573224 16.7279C0.94763 17.3193 1.48216 17.7918 2.11437 18.0899L7.38361 20.584V35.0679C7.38361 37.8095 8.27164 40.8689 10.862 42.7533C14.1268 45.118 20.074 48 29.507 48C38.9401 48 44.8726 45.0995 48.152 42.7533C50.7424 40.8763 51.6304 37.8391 51.6304 35.0679V20.584L55.3152 18.8363V35.0568C55.3152 35.5468 55.5093 36.0167 55.8548 36.3632C56.2004 36.7096 56.669 36.9043 57.1576 36.9043C57.6462 36.9043 58.1149 36.7096 58.4604 36.3632C58.8059 36.0167 59 35.5468 59 35.0568V14.735C59.0002 14.0352 58.8021 13.3498 58.429 12.7585C58.0559 12.1672 57.523 11.6943 56.8923 11.3948L35.8154 1.41861C33.8454 0.484497 31.6935 0 29.5144 0C27.3353 0 25.1833 0.484497 23.2134 1.41861L2.13648 11.3948L2.11437 11.4096ZM11.0684 35.0568V22.3095L23.1913 28.0735C25.1612 29.0076 27.3132 29.4921 29.4923 29.4921C31.6714 29.4921 33.8233 29.0076 35.7933 28.0735L47.9162 22.3095V35.0568C47.9162 37.1112 47.2529 38.7887 45.9632 39.7124C43.2955 41.6448 38.1147 44.294 29.4923 44.294C20.8699 44.294 15.6744 41.6633 13.0213 39.7124C11.7353 38.7813 11.0684 37.0927 11.0684 35.0568ZM24.7758 4.75878C26.25 4.05852 27.861 3.69527 29.4923 3.69527C31.1236 3.69527 32.7345 4.05852 34.2088 4.75878L55.2857 14.735L34.2088 24.7111C32.7345 25.4114 31.1236 25.7747 29.4923 25.7747C27.861 25.7747 26.25 25.4114 24.7758 24.7111L3.69883 14.735L24.7758 4.75878Z" fill="#B1B1B1"/>
</svg>
