<svg width="48" height="50" viewBox="0 0 48 50" fill="none" xmlns="http://www.w3.org/2000/svg">
<path d="M13.482 33.4C13.5493 33.6431 13.6637 33.8706 13.8189 34.0694C13.974 34.2682 14.1668 34.4346 14.3862 34.5589C14.6056 34.6832 14.8474 34.7631 15.0977 34.794C15.348 34.8249 15.6019 34.8062 15.845 34.739C16.0881 34.6717 16.3155 34.5573 16.5143 34.4021C16.7132 34.247 16.8795 34.0542 17.0038 33.8348C17.1282 33.6154 17.208 33.3736 17.2389 33.1233C17.2698 32.873 17.2511 32.6191 17.1839 32.376L13.482 33.4ZM2.45838 6.41692C2.21436 6.34564 1.95861 6.32353 1.70597 6.35188C1.45334 6.38022 1.20885 6.45845 0.986687 6.58203C0.764526 6.70561 0.569117 6.87208 0.411799 7.07178C0.254481 7.27147 0.138386 7.50042 0.0702496 7.74534C0.0021131 7.99026 -0.0167081 8.24627 0.0148782 8.49852C0.0464645 8.75077 0.127829 8.99424 0.254252 9.21479C0.380674 9.43535 0.549637 9.6286 0.751337 9.78334C0.953037 9.93808 1.18346 10.0512 1.42923 10.1162L2.45838 6.41692ZM45.9488 34.5777C46.1989 34.5199 46.4347 34.4125 46.6426 34.262C46.8504 34.1115 47.0259 33.9208 47.1588 33.7013C47.2917 33.4818 47.3792 33.2379 47.4163 32.984C47.4533 32.73 47.439 32.4713 47.3743 32.2229C47.3096 31.9746 47.1958 31.7418 47.0396 31.5382C46.8834 31.3346 46.688 31.1644 46.4649 31.0376C46.2418 30.9109 45.9955 30.8301 45.7407 30.8001C45.4858 30.7701 45.2276 30.7915 44.9811 30.863L45.9488 34.5777ZM20.3712 39.2728C21.1648 42.1401 19.424 45.1687 16.3416 45.97L17.3068 49.6847C22.368 48.3713 25.4606 43.2794 24.073 38.2488L20.3712 39.2728ZM16.3416 45.97C13.2388 46.7764 10.1258 44.9741 9.32705 42.0812L5.62519 43.1053C7.00762 48.1102 12.266 50.9954 17.3068 49.6847L16.3416 45.97ZM9.32705 42.0812C8.53342 39.214 10.2743 36.1854 13.3566 35.3841L12.3914 31.672C7.33019 32.9853 4.23507 38.0747 5.62519 43.1053L9.32705 42.0812ZM13.3566 35.3841C16.4594 34.5777 19.5724 36.38 20.3712 39.2728L24.073 38.2488C22.6906 33.2439 17.4322 30.3587 12.3914 31.6694L13.3566 35.3841ZM17.1839 32.376L11.6746 12.4331L7.97277 13.4571L13.482 33.4L17.1839 32.376ZM6.82074 7.62527L2.45838 6.41692L1.42923 10.1162L5.79415 11.3271L6.82074 7.62527ZM11.6746 12.4331C11.3491 11.281 10.7311 10.2328 9.8805 9.39029C9.02995 8.54781 7.97586 7.93976 6.82074 7.62527L5.79927 11.3271C6.8873 11.6292 7.69628 12.4561 7.97277 13.4571L11.6746 12.4331ZM22.7085 40.6194L45.9488 34.5777L44.9837 30.863L21.7408 36.9048L22.7085 40.6194Z" fill="#B1B1B1"/>
<path d="M18.7542 16.6685C17.5126 12.1756 16.893 9.92784 17.9478 8.15883C19 6.38727 21.3168 5.78565 25.9506 4.57986L30.8659 3.30494C35.4996 2.10171 37.8165 1.49753 39.6418 2.519C41.4671 3.54303 42.0892 5.78821 43.3283 10.2837L44.6467 15.0505C45.8884 19.5435 46.5105 21.7912 45.4557 23.5628C44.401 25.3318 42.0841 25.936 37.4504 27.1392L32.5351 28.4167C27.9013 29.6199 25.5845 30.2215 23.7591 29.2C21.9338 28.176 21.3143 25.9308 20.0726 21.4379L18.7542 16.6685Z" stroke="#B1B1B1" stroke-width="4"/>
</svg>
