<svg width="53" height="52" viewBox="0 0 53 52" fill="none" xmlns="http://www.w3.org/2000/svg">
<path d="M2 12.6362V21.5456M10.9094 17.0909H2M51.0016 12.6362V21.5456M42.0922 17.0909H51.0016M26.5008 12.1908C27.2028 12.1908 27.8979 12.0525 28.5465 11.7839C29.1951 11.5152 29.7844 11.1215 30.2807 10.6251C30.7771 10.1287 31.1709 9.53939 31.4395 8.89083C31.7082 8.24226 31.8464 7.54714 31.8464 6.84514C31.8464 6.14314 31.7082 5.44802 31.4395 4.79946C31.1709 4.1509 30.7771 3.5616 30.2807 3.06521C29.7844 2.56882 29.1951 2.17507 28.5465 1.90642C27.8979 1.63778 27.2028 1.49951 26.5008 1.49951C25.0831 1.49951 23.7234 2.06271 22.7209 3.06521C21.7184 4.06771 21.1552 5.42739 21.1552 6.84514C21.1552 8.26289 21.7184 9.62257 22.7209 10.6251C23.7234 11.6276 25.0831 12.1908 26.5008 12.1908ZM35.8557 24.2184C35.8557 21.7374 34.8701 19.3579 33.1157 17.6036C31.3613 15.8492 28.9819 14.8636 26.5008 14.8636C24.0197 14.8636 21.6403 15.8492 19.8859 17.6036C18.1315 19.3579 17.146 21.7374 17.146 24.2184V28.2277H21.1552L22.4916 41.5917H30.51L31.8464 28.2277H35.8557V24.2184Z" stroke="#B1B1B1" stroke-width="3" stroke-linecap="round" stroke-linejoin="round"/>
<path d="M10.9094 34.7175C5.46798 36.3523 2 38.8247 2 41.5911C2 46.5113 12.9697 50.5004 26.5008 50.5004C40.0319 50.5004 51.0016 46.5113 51.0016 41.5911C51.0016 38.8247 47.5336 36.3523 42.0922 34.7175" stroke="#B1B1B1" stroke-width="3" stroke-linecap="round" stroke-linejoin="round"/>
</svg>
