<svg width="55" height="54" viewBox="0 0 55 54" fill="none" xmlns="http://www.w3.org/2000/svg">
<path d="M53 27C53 33.763 50.3134 40.249 45.5312 45.0312C40.749 49.8134 34.263 52.5 27.5 52.5C20.737 52.5 14.251 49.8134 9.46878 45.0312C4.6866 40.249 2 33.763 2 27M53 27C53 20.237 50.3134 13.751 45.5312 8.96878C40.749 4.1866 34.263 1.5 27.5 1.5C20.737 1.5 14.251 4.1866 9.46878 8.96878C4.6866 13.751 2 20.237 2 27M53 27H2" stroke="#B1B1B1" stroke-width="3" stroke-linecap="round" stroke-linejoin="round"/>
<path d="M37.3079 27C36.8261 36.3251 33.3914 45.2554 27.5002 52.5C21.609 45.2554 18.1742 36.3251 17.6925 27C18.1742 17.6749 21.609 8.74456 27.5002 1.5C33.3914 8.74456 36.8261 17.6749 37.3079 27Z" stroke="#B1B1B1" stroke-width="3" stroke-linecap="round" stroke-linejoin="round"/>
</svg>
