<svg width="52" height="55" viewBox="0 0 52 55" fill="none" xmlns="http://www.w3.org/2000/svg">
<path d="M18 43.5C9.80529 40.3374 4 32.4592 4 23.2411C4 11.2338 13.8497 1.5 26 1.5C38.1503 1.5 48 11.2338 48 23.2411C48 32.4592 42.1947 40.3374 34 43.5" stroke="#A2A9AD" stroke-width="2" stroke-linecap="round"/>
<path d="M27 53.5C27 54.0523 26.5523 54.5 26 54.5C25.4477 54.5 25 54.0523 25 53.5L27 53.5ZM25.2929 14.7929C25.6834 14.4024 26.3166 14.4024 26.7071 14.7929L33.0711 21.1569C33.4616 21.5474 33.4616 22.1805 33.0711 22.5711C32.6805 22.9616 32.0474 22.9616 31.6569 22.5711L26 16.9142L20.3431 22.5711C19.9526 22.9616 19.3195 22.9616 18.9289 22.5711C18.5384 22.1805 18.5384 21.5474 18.9289 21.1569L25.2929 14.7929ZM26 53.5L25 53.5L25 15.5L26 15.5L27 15.5L27 53.5L26 53.5Z" fill="#333333"/>
</svg>
