<svg width="52" height="55" viewBox="0 0 52 55" fill="none" xmlns="http://www.w3.org/2000/svg">
<path d="M18 11.5C9.80528 14.6626 4 22.5408 4 31.7589C4 43.7662 13.8497 53.5 26 53.5C38.1503 53.5 48 43.7662 48 31.7589C48 22.5408 42.1947 14.6626 34 11.5" stroke="#A2A9AD" stroke-width="2" stroke-linecap="round"/>
<path d="M27 1.5C27 0.947715 26.5523 0.5 26 0.5C25.4477 0.5 25 0.947715 25 1.5L27 1.5ZM25.2929 40.2071C25.6834 40.5976 26.3166 40.5976 26.7071 40.2071L33.0711 33.8431C33.4616 33.4526 33.4616 32.8195 33.0711 32.4289C32.6805 32.0384 32.0474 32.0384 31.6569 32.4289L26 38.0858L20.3431 32.4289C19.9526 32.0384 19.3195 32.0384 18.9289 32.4289C18.5384 32.8195 18.5384 33.4526 18.9289 33.8431L25.2929 40.2071ZM26 1.5L25 1.5L25 39.5L26 39.5L27 39.5L27 1.5L26 1.5Z" fill="#333333"/>
</svg>
